<?xml version="1.0" encoding="utf-8"?>
<!-- Generator: Adobe Illustrator 28.0.0, SVG Export Plug-In . SVG Version: 6.00 Build 0)  -->
<svg version="1.1" id="Calque_1" xmlns="http://www.w3.org/2000/svg" xmlns:xlink="http://www.w3.org/1999/xlink" x="0px" y="0px"
	 viewBox="0 0 200 200" style="enable-background:new 0 0 200 200;" xml:space="preserve">
<style type="text/css">
	.st0{fill:#F0CD6E;}
	.st1{fill:#2A3F3F;}
</style>
<rect x="-22.5" y="-13.46" class="st0" width="240" height="227.01"/>
<g>
	<g>
		<path class="st1" d="M184.23,100v-2.4c0-3.01-2.35-5.44-5.26-5.44l0,0c-2.9,0-5.26,2.44-5.26,5.44v2.4v2.4
			c0,3.01,2.35,5.44,5.26,5.44l0,0c2.9,0,5.26-2.44,5.26-5.44V100z"/>
	</g>
	<g>
		<path class="st1" d="M168.45,100V86.19c0-3.01-2.35-5.44-5.26-5.44l0,0c-2.9,0-5.26,2.44-5.26,5.44V100v13.81
			c0,3.01,2.35,5.44,5.26,5.44l0,0c2.9,0,5.26-2.44,5.26-5.44V100z"/>
	</g>
	<g>
		<path class="st1" d="M152.68,100V51.01c0-3.01-2.35-5.44-5.26-5.44l0,0c-2.9,0-5.26,2.44-5.26,5.44V100v48.99
			c0,3.01,2.35,5.44,5.26,5.44l0,0c2.9,0,5.26-2.44,5.26-5.44V100z"/>
	</g>
	<g>
		<path class="st1" d="M200,100v-0.6c0-3.01-2.35-5.44-5.26-5.44l0,0c-2.9,0-5.26,2.44-5.26,5.44v0.6v0.6
			c0,3.01,2.35,5.44,5.26,5.44l0,0c2.9,0,5.26-2.44,5.26-5.44V100z"/>
	</g>
	<g>
		<path class="st1" d="M10.51,100v-0.6c0-3.01-2.35-5.44-5.26-5.44l0,0C2.35,93.95,0,96.39,0,99.4v0.6v0.6
			c0,3.01,2.35,5.44,5.26,5.44l0,0c2.9,0,5.26-2.44,5.26-5.44V100z"/>
	</g>
	<g>
		<path class="st1" d="M136.91,100V19.71c0-3.01-2.35-5.44-5.26-5.44l0,0c-2.9,0-5.26,2.44-5.26,5.44V100v80.29
			c0,3.01,2.35,5.44,5.26,5.44l0,0c2.9,0,5.26-2.44,5.26-5.44V100z"/>
	</g>
	<g>
		<path class="st1" d="M121.14,100V62.57c0-3.01-2.35-5.44-5.26-5.44h0c-2.9,0-5.26,2.44-5.26,5.44V100v37.43
			c0,3.01,2.35,5.44,5.26,5.44h0c2.9,0,5.26-2.44,5.26-5.44V100z"/>
	</g>
	<g>
		<path class="st1" d="M105.36,100v-4.81c0-3.01-2.35-5.44-5.26-5.44l0,0c-2.9,0-5.26,2.44-5.26,5.44V100v4.81
			c0,3.01,2.35,5.44,5.26,5.44l0,0c2.9,0,5.26-2.44,5.26-5.44V100z"/>
	</g>
	<g>
		<path class="st1" d="M89.59,100V55.08c0-3.01-2.35-5.44-5.26-5.44h0c-2.9,0-5.26,2.44-5.26,5.44V100v44.92
			c0,3.01,2.35,5.44,5.26,5.44h0c2.9,0,5.26-2.44,5.26-5.44V100z"/>
	</g>
	<g>
		<path class="st1" d="M73.82,100V25.22c0-3.01-2.35-5.44-5.26-5.44l0,0c-2.9,0-5.26,2.44-5.26,5.44V100v74.78
			c0,3.01,2.35,5.44,5.26,5.44l0,0c2.9,0,5.26-2.44,5.26-5.44V100z"/>
	</g>
	<g>
		<path class="st1" d="M58.05,100V5.44c0-3.01-2.35-5.44-5.26-5.44h0c-2.9,0-5.26,2.44-5.26,5.44V100v94.56
			c0,3.01,2.35,5.44,5.26,5.44h0c2.9,0,5.26-2.44,5.26-5.44V100z"/>
	</g>
	<g>
		<path class="st1" d="M42.27,100V73.68c0-3.01-2.35-5.44-5.26-5.44l0,0c-2.9,0-5.26,2.44-5.26,5.44V100v26.32
			c0,3.01,2.35,5.44,5.26,5.44l0,0c2.9,0,5.26-2.44,5.26-5.44V100z"/>
	</g>
	<g>
		<path class="st1" d="M26.5,100V89.56c0-3.01-2.35-5.44-5.26-5.44l0,0c-2.9,0-5.26,2.44-5.26,5.44V100v10.44
			c0,3.01,2.35,5.44,5.26,5.44l0,0c2.9,0,5.26-2.44,5.26-5.44V100z"/>
	</g>
</g>
</svg>
