<?xml version="1.0" encoding="utf-8"?>
<!-- Generator: Adobe Illustrator 28.0.0, SVG Export Plug-In . SVG Version: 6.00 Build 0)  -->
<svg version="1.1" id="Calque_1" xmlns="http://www.w3.org/2000/svg" xmlns:xlink="http://www.w3.org/1999/xlink" x="0px" y="0px"
	 viewBox="0 0 200 200" style="enable-background:new 0 0 200 200;" xml:space="preserve">
<style type="text/css">
	.st0{fill:#F0CD6E;}
	.st1{fill:#2A3F3F;}
</style>
<rect x="-22.5" y="-13.46" class="st0" width="240" height="227.01"/>
<g>
	<g>
		<rect y="175.27" class="st1" width="8.51" height="27.74"/>
	</g>
	<g>
		<rect x="12.77" y="133.95" class="st1" width="8.51" height="69.05"/>
	</g>
	<g>
		<rect x="25.53" y="74.13" class="st1" width="8.51" height="128.88"/>
	</g>
	<g>
		<rect x="38.3" class="st1" width="8.51" height="203.01"/>
	</g>
	<g>
		<rect x="51.06" y="101.5" class="st1" width="8.51" height="101.5"/>
	</g>
	<g>
		<rect x="63.83" y="189.14" class="st1" width="8.51" height="13.87"/>
	</g>
	<g>
		<rect x="76.6" y="83.76" class="st1" width="8.51" height="119.25"/>
	</g>
	<g>
		<rect x="89.36" y="13.05" class="st1" width="8.51" height="189.96"/>
	</g>
	<g>
		<rect x="102.13" class="st1" width="8.51" height="203.01"/>
	</g>
	<g>
		<rect x="114.89" y="127.81" class="st1" width="8.51" height="75.2"/>
	</g>
	<g>
		<rect x="127.66" y="165.41" class="st1" width="8.51" height="37.6"/>
	</g>
	<g>
		<rect x="140.43" y="193.42" class="st1" width="8.51" height="9.58"/>
	</g>
	<g>
		<rect x="153.19" y="127.81" class="st1" width="8.51" height="75.2"/>
	</g>
	<g>
		<rect x="165.96" y="78.96" class="st1" width="8.51" height="124.05"/>
	</g>
	<g>
		<rect x="178.72" class="st1" width="8.51" height="203.01"/>
	</g>
	<g>
		<rect x="191.49" y="157.42" class="st1" width="8.51" height="45.58"/>
	</g>
</g>
</svg>
