<?xml version="1.0" encoding="utf-8"?>
<!-- Generator: Adobe Illustrator 28.0.0, SVG Export Plug-In . SVG Version: 6.00 Build 0)  -->
<svg version="1.1" id="Calque_1" xmlns="http://www.w3.org/2000/svg" xmlns:xlink="http://www.w3.org/1999/xlink" x="0px" y="0px"
	 viewBox="0 0 200 200" style="enable-background:new 0 0 200 200;" xml:space="preserve">
<style type="text/css">
	.st0{fill:#F0CD6E;}
	.st1{fill:#2A3F3F;}
</style>
<rect x="-22.5" y="-13.46" class="st0" width="240" height="227.01"/>
<g>
	<g>
		<path class="st1" d="M108.66,200c-12.75,0-18.62-45.56-25.52-109.91C78.48,46.63,73.67,1.7,65.72,1.7
			c-8.33,0-12.52,37.43-16.22,70.45c-4.5,40.28-8.76,78.32-20.16,79.48c-0.15,0.01-0.3,0.02-0.44,0.02
			c-12.07,0-20.77-49.86-21.73-55.62l1.6-0.29c2.55,15.21,11.06,54.21,20.1,54.21c0.1,0,0.21-0.01,0.31-0.02
			c10.1-1.02,14.67-41.91,18.71-77.99C52.21,33.34,55.94,0,65.72,0c8.77,0,13.04,33.96,19.04,89.89
			c5.45,50.82,11.62,108.41,23.91,108.41c12.32,0,16.64-45.82,20.45-86.24c3.59-38.08,6.69-70.97,15.93-70.97h0
			c9.36,0,12.47,17.9,13.97,26.5c0.17,0.97,0.32,1.82,0.45,2.52c1.4,7.26,2.5,14.7,3.56,21.9c1.34,9.1,2.73,18.51,4.75,27.61
			c1.18,5.3,5.09,16.55,9.65,17.48c1.64,0.33,3.37-0.8,5.1-3.39c5.75-8.6,6.63-22.16,7.32-33.07c0.09-1.46,0.19-2.87,0.29-4.22
			l1.62,0.13c-0.1,1.34-0.19,2.75-0.28,4.2c-0.71,11.11-1.6,24.94-7.61,33.92c-2.13,3.18-4.39,4.54-6.74,4.08
			c-5.8-1.18-9.85-13.94-10.92-18.76c-2.04-9.17-3.43-18.61-4.77-27.74c-1.06-7.18-2.15-14.6-3.55-21.82
			c-0.14-0.7-0.29-1.57-0.46-2.55c-1.42-8.15-4.37-25.1-12.37-25.1c0,0,0,0,0,0c-7.77,0-11.09,35.3-14.31,69.44
			C126.66,155.38,122.45,200,108.66,200z"/>
		<path class="st1" d="M109.61,189.69c-11.48,0-18.06-41-26.1-98.92c-5.43-39.11-11.05-79.55-18.2-79.55
			c-7.5,0-12.37,33.72-16.67,63.48c-5.23,36.21-10.17,70.42-20.43,71.46c-0.13,0.01-0.27,0.02-0.4,0.02
			c-10.91,0-20.34-44.88-21.39-50.05l1.49-0.33c2.78,13.69,11.71,48.79,19.86,48.79c0.1,0,0.19-0.01,0.29-0.02
			c9.07-0.92,14.38-37.68,19.06-70.1c5.02-34.79,9.36-64.84,18.18-64.84c7.9,0,12.71,30.57,19.71,80.92
			c6.35,45.73,13.55,97.55,24.59,97.55c11.08,0,16.41-41.23,21.1-77.62c4.42-34.28,8.25-63.88,16.56-63.88
			c8.83,0,12.11,17.48,13.51,24.94l0.23,1.21c0.9,4.64,1.76,9.31,2.64,13.98c1.87,10.08,3.81,20.5,6.05,30.58
			c1.12,5.06,4.94,14.86,9.08,15.7c1.55,0.32,3.12-0.71,4.67-3.03c5.8-8.67,6.84-22.82,7.6-33.15l0.03-0.38l1.52,0.12l-0.03,0.39
			c-0.77,10.51-1.83,24.91-7.88,33.94c-1.93,2.89-4.01,4.13-6.21,3.68c-5.67-1.15-9.55-13.63-10.28-16.91
			c-2.25-10.1-4.19-20.54-6.06-30.63c-0.87-4.67-1.73-9.34-2.63-13.97l-0.23-1.22c-1.21-6.47-4.44-23.64-12.01-23.64
			c-6.99,0-11.09,31.77-15.05,62.5C127.21,149.52,122.03,189.69,109.61,189.69z"/>
		<path class="st1" d="M110.56,179.36c-11,0-18.98-44.7-26.69-87.94c-6.2-34.76-12.62-70.7-18.97-70.7
			c-6.67,0-12.23,30.03-17.13,56.52c-5.95,32.14-11.57,62.5-20.68,63.42c-0.12,0.01-0.24,0.02-0.36,0.02
			c-9.74,0-19.9-39.89-21.04-44.49l1.38-0.38c3.01,12.17,12.35,43.38,19.63,43.38c0.09,0,0.17-0.01,0.25-0.01
			c8.05-0.82,14.09-33.44,19.42-62.22C52.1,45.98,57.05,19.23,64.9,19.23c7.03,0,12.38,27.17,20.37,71.92
			c7.25,40.65,15.47,86.72,25.29,86.72c9.85,0,16.17-36.66,21.76-68.99c5.26-30.47,9.8-56.78,17.2-56.78
			c5.59,0,10.1,8.05,13.05,23.27c1.56,8.06,3.56,16.35,5.48,24.36c1.21,5.01,2.45,10.2,3.57,15.24c0.84,3.76,4.47,13.1,8.52,13.92
			c1.41,0.29,2.86-0.6,4.24-2.67c4.08-6.09,6.65-16.11,7.65-29.79l1.43,0.11c-1.03,13.95-3.69,24.22-7.91,30.53
			c-1.74,2.59-3.63,3.7-5.69,3.28c-5.03-1.02-8.82-11.39-9.63-15.05c-1.12-5.03-2.37-10.21-3.57-15.21
			c-1.93-8.03-3.93-16.34-5.5-24.43c-2.75-14.24-6.89-22.07-11.65-22.07c-6.2,0-11.08,28.24-15.79,55.55
			C127.76,143.67,121.6,179.36,110.56,179.36z"/>
		<path class="st1" d="M111.5,169.05c-8.96,0-16.62-30.47-27.27-76.95C77.25,61.68,70.05,30.24,64.5,30.24
			c-5.84,0-12.09,26.33-17.61,49.56c-6.67,28.07-12.96,54.58-20.93,55.39c-0.1,0.01-0.21,0.02-0.31,0.02
			c-8.58,0-19.47-34.9-20.7-38.92l1.27-0.42c3.25,10.65,12.99,37.95,19.4,37.95c0.07,0,0.15,0,0.22-0.01
			c7.03-0.71,13.79-29.2,19.76-54.33c6.45-27.17,12.02-50.62,18.9-50.62c6.16,0,12.05,23.78,21.03,62.93
			c8.15,35.57,17.4,75.88,25.98,75.88c8.62,0,15.95-32.08,22.42-60.38c6.09-26.65,11.35-49.67,17.83-49.67
			c8.32,0,12.2,19.56,12.36,20.39c1.19,6.15,3.12,12.49,4.99,18.62c1.61,5.28,3.27,10.73,4.45,16.03
			c0.83,3.74,4.39,11.42,7.95,12.14c1.35,0.28,2.59-0.48,3.82-2.31c4.47-6.69,7.08-17.9,7.68-26.05l1.33,0.11
			c-0.57,7.73-2.98,19.37-7.91,26.74c-1.54,2.3-3.27,3.26-5.16,2.88c-4.53-0.92-8.21-9.69-8.99-13.2
			c-1.17-5.25-2.82-10.68-4.42-15.93c-1.88-6.16-3.82-12.54-5.02-18.76c-1.04-5.36-5.05-19.28-11.05-19.28
			c-5.42,0-11.07,24.71-16.54,48.6C128.31,137.81,121.17,169.05,111.5,169.05z"/>
		<path class="st1" d="M112.45,158.73c-7.68,0-16.02-26.11-27.86-65.95c-7.39-24.85-15.76-53.03-20.51-53.03
			c-5.01,0-11.97,22.63-18.1,42.61c-7.37,24-14.34,46.66-21.15,47.35c-0.09,0.01-0.18,0.01-0.27,0.01
			c-7.41,0-19.04-29.9-20.35-33.35l1.15-0.48c3.48,9.13,13.63,32.54,19.17,32.54c0.06,0,0.13,0,0.19-0.01
			c6.01-0.61,13.5-24.97,20.1-46.46c7.17-23.34,13.36-43.51,19.28-43.51c5.28,0,11.72,20.38,21.69,53.94
			c9.06,30.49,19.32,65.04,26.68,65.04c7.38,0,15.72-27.49,23.08-51.76c6.93-22.85,12.91-42.58,18.46-42.58
			c6.76,0,11.14,14.8,11.66,17.53c0.98,5.07,3.03,10.3,5.01,15.37c1.84,4.71,3.75,9.58,4.8,14.33c0.63,2.84,4.07,9.69,7.38,10.36
			c1.25,0.26,2.34-0.39,3.4-1.96c3.88-5.8,7.19-15.39,7.7-22.3l1.23,0.1c-0.52,7.11-3.92,16.97-7.92,22.94
			c-1.66,2.49-3.44,2.74-4.64,2.48c-4.23-0.86-7.73-8.56-8.34-11.34c-1.03-4.65-2.92-9.47-4.74-14.14c-2-5.12-4.07-10.41-5.08-15.6
			c-0.9-4.69-5.34-16.49-10.45-16.49c-4.65,0-11.08,21.19-17.29,41.67C128.86,131.96,120.74,158.73,112.45,158.73z"/>
		<path class="st1" d="M113.4,148.41c-6.89,0-17.35-26.69-28.43-54.95c-8.13-20.72-17.33-44.21-21.29-44.21
			c-4.19,0-11.86,18.95-18.63,35.67c-8.06,19.91-15.68,38.73-21.35,39.3c-0.07,0.01-0.15,0.01-0.23,0.01
			c-6.24,0-18.59-24.91-20-27.78l1.01-0.54c5.37,10.99,14.78,27.14,18.94,27.14c0.05,0,0.1,0,0.16-0.01
			c4.99-0.51,13.19-20.74,20.41-38.58c9.17-22.64,15.07-36.39,19.68-36.39c4.49,0,11.42,17.08,22.34,44.94
			c9.96,25.41,21.26,54.21,27.38,54.21c6.15,0,15.5-22.92,23.75-43.14c9-22.07,14.77-35.47,19.09-35.47c5.26,0,10.27,11,10.98,14.65
			c0.8,4.12,2.99,8.4,5.11,12.54c2.05,4,4.17,8.15,5.07,12.2c0.48,2.18,3.72,7.96,6.8,8.58c1.15,0.22,2.11-0.29,2.98-1.6
			c3.44-5.14,7.33-13.14,7.72-18.55l1.14,0.09c-0.42,5.66-4.28,13.7-7.93,19.15c-1.42,2.12-3.03,2.3-4.13,2.08
			c-3.64-0.74-7.13-6.95-7.69-9.48c-0.87-3.91-2.95-7.98-4.97-11.91c-2.16-4.22-4.39-8.57-5.22-12.87
			c-0.66-3.42-5.55-13.69-9.86-13.69c-3.88,0-11.08,17.66-18.04,34.74C129.4,126.11,120.3,148.41,113.4,148.41z"/>
		<path class="st1" d="M114.34,138.09c-5.13,0-14.81-17.4-28.99-43.94c-8.86-16.58-18.91-35.38-22.08-35.38
			c-3.37,0-11.78,15.26-19.2,28.72c-8.73,15.84-16.98,30.79-21.5,31.25c-4.88,0.51-18.31-19.87-19.82-22.19l0.86-0.61
			c5.72,8.8,15.35,21.73,18.73,21.73c0.04,0,0.08,0,0.12-0.01c3.99-0.4,12.86-16.51,20.7-30.71c10.04-18.21,16.41-29.27,20.1-29.27
			c3.59,0,11.07,13.66,22.98,35.94C97.13,113.96,109.45,137,114.34,137c4.93,0,15.29-18.35,24.43-34.54
			c9.96-17.63,16.25-28.34,19.7-28.34c4.31,0,9.74,8.97,10.29,11.77c0.62,3.23,2.97,6.61,5.24,9.87c2.25,3.25,4.58,6.61,5.32,9.93
			c0.37,1.68,3.42,6.24,6.2,6.8c1.02,0.21,1.88-0.19,2.58-1.23c0.33-0.5,0.7-1.03,1.08-1.6c2.69-3.94,6.38-9.34,6.66-13.21
			l1.03,0.09c-0.3,4.17-4.09,9.71-6.85,13.76c-0.39,0.56-0.75,1.1-1.08,1.59c-0.93,1.39-2.19,1.97-3.63,1.68
			c-3.17-0.64-6.54-5.46-7.02-7.63c-0.69-3.1-2.96-6.37-5.15-9.53c-2.33-3.36-4.75-6.84-5.42-10.29c-0.53-2.73-5.83-10.9-9.27-10.9
			c-3.1,0-11.08,14.14-18.8,27.81C129.94,120.26,119.87,138.09,114.34,138.09z"/>
		<path class="st1" d="M115.29,127.77c-3.84,0-14.19-13.04-29.54-32.93C76.14,82.4,65.24,68.28,62.87,68.28
			c-2.55,0-11.76,11.58-19.88,21.79c-9.35,11.75-18.18,22.85-21.54,23.19c-0.04,0-0.09,0.01-0.14,0.01
			c-3.89,0-17.68-14.91-19.26-16.63l0.68-0.68c6.07,6.61,15.92,16.33,18.53,16.33c0.03,0,0.06,0,0.1-0.01
			c2.97-0.3,12.5-12.27,20.9-22.84C53.22,75.66,60.08,67.3,62.87,67.3c2.69,0,10.73,10.23,23.62,26.93
			c11.2,14.51,25.13,32.56,28.81,32.56c3.7,0,15.08-13.78,25.12-25.93c10.87-13.17,17.67-21.23,20.31-21.23
			c3.18,0,9.18,6.77,9.59,8.89c0.45,2.34,2.95,4.84,5.36,7.26c2.46,2.47,5,5.02,5.58,7.59c0.25,1.14,3.12,4.52,5.58,5.02
			c0.96,0.19,1.69-0.09,2.21-0.87c0.66-0.99,1.7-2.17,2.8-3.42c2.26-2.57,4.82-5.48,4.98-7.65l0.94,0.07
			c-0.18,2.51-2.86,5.55-5.22,8.24c-1.07,1.22-2.09,2.38-2.71,3.31c-0.74,1.1-1.82,1.55-3.16,1.28c-2.84-0.57-5.98-4.22-6.32-5.76
			c-0.5-2.28-2.95-4.73-5.31-7.1c-2.52-2.53-5.12-5.14-5.63-7.78c-0.33-1.72-6.01-8.11-8.67-8.11c-2.34,0-11.11,10.62-19.59,20.9
			C130.46,114.42,119.43,127.77,115.29,127.77z"/>
		<path class="st1" d="M116.24,117.46c-2.55,0-13.56-8.68-30.07-21.92C75.8,87.22,64.05,77.8,62.46,77.8
			c-1.73,0-11.87,7.9-20.82,14.87c-11.55,9-19.28,14.91-21.32,15.11c-0.03,0-0.06,0.01-0.09,0.01c-2.72,0-17.2-9.91-18.86-11.05
			l0.46-0.74C8,100.25,18.36,106.9,20.17,106.9c0.02,0,0.04,0,0.06,0c1.97-0.2,12.03-8.04,20.9-14.95
			c12.02-9.36,19.45-15.04,21.32-15.04c1.79,0,10.37,6.81,24.22,17.92c12.07,9.68,27.1,21.74,29.56,21.74
			c2.48,0,14.88-9.2,25.83-17.32c11.81-8.76,19.14-14.13,20.88-14.13c2.1,0,8.59,4.39,8.91,6.02c0.28,1.46,2.92,3.11,5.48,4.7
			c2.79,1.74,5.43,3.39,5.83,5.2c0.14,0.62,2.69,2.78,4.87,3.22c0.93,0.19,1.57,0.02,1.92-0.5c0.58-0.87,1.97-1.9,3.45-3
			c1.9-1.41,4.26-3.16,4.35-4.32l0.84,0.07c-0.12,1.57-2.45,3.3-4.7,4.98c-1.41,1.05-2.75,2.04-3.25,2.78
			c-0.38,0.57-1.17,1.17-2.77,0.86c-2.32-0.47-5.28-2.72-5.54-3.89c-0.32-1.44-2.92-3.06-5.44-4.63c-2.84-1.77-5.51-3.44-5.87-5.28
			c-0.22-1.11-6.27-5.31-8.08-5.31c-1.57,0-11.57,7.42-20.4,13.96C130.97,108.57,118.99,117.46,116.24,117.46z"/>
		<path class="st1" d="M117.19,107.14c-1.27,0-12.94-4.33-30.59-10.94c-11.63-4.36-23.65-8.86-24.55-8.89
			c-0.92,0-13.08,4.43-22.84,7.98c-11.81,4.3-19.05,6.92-20.02,7.01c-0.01,0-0.03,0-0.05,0c-1.52,0-15.61-4.58-18.45-5.51l0.22-0.74
			c6.52,2.13,17.14,5.47,18.19,5.47c0.01,0,0.02,0,0.03,0c0.94-0.1,10.55-3.59,19.84-6.98c13.32-4.85,22.12-8.02,23.09-8.02
			c0.89,0,10,3.4,24.8,8.94c12.96,4.85,29.1,10.89,30.33,10.89c1.25,0,15.28-4.81,26.56-8.68c12.73-4.37,20.58-7.04,21.44-7.04
			c0.45,0,8,2.01,8.21,3.15c0.13,0.59,3.55,1.59,5.59,2.19c3.63,1.06,5.87,1.76,6.09,2.75c0.25,0.33,3.19,1.52,4.96,1.52
			c0.03,0,0.05,0,0.07,0c0.59-0.01,0.74-0.16,0.77-0.21c0.35-0.52,1.67-1.02,3.8-1.78c1.44-0.51,3.84-1.37,4.02-1.82l0.74,0.08
			c-0.06,0.8-1.42,1.37-4.52,2.48c-1.35,0.48-3.2,1.14-3.43,1.49c-0.38,0.56-1.36,0.69-2.9,0.38c-1.02-0.21-4.05-1.1-4.24-1.96
			c-0.13-0.59-3.53-1.58-5.56-2.17c-3.67-1.07-5.93-1.78-6.12-2.79c-0.46-0.52-6.53-2.52-7.48-2.52c-0.82,0.01-11.19,3.56-21.21,7
			C128.62,103.69,118.46,107.14,117.19,107.14z"/>
		<rect y="96.14" class="st1" width="200" height="0.68"/>
	</g>
	<g>
		<rect y="95.63" class="st1" width="200" height="1.7"/>
	</g>
</g>
</svg>
