<?xml version="1.0" encoding="utf-8"?>
<!-- Generator: Adobe Illustrator 28.0.0, SVG Export Plug-In . SVG Version: 6.00 Build 0)  -->
<svg version="1.1" id="Calque_1" xmlns="http://www.w3.org/2000/svg" xmlns:xlink="http://www.w3.org/1999/xlink" x="0px" y="0px"
	 viewBox="0 0 500 300" style="enable-background:new 0 0 500 300;" xml:space="preserve">
<style type="text/css">
	.st0{fill:#2B3F3F;stroke:#F0CD6F;stroke-miterlimit:10;}
	.st1{fill:#F0CD6F;}
</style>
<g>
	<rect x="-55.47" y="-3.15" class="st0" width="605.53" height="385.89"/>
	<path class="st1" d="M274.14,137.4c-47.86,0-69.85-32.8-89.26-61.74c-16.18-24.13-31.47-46.93-57.96-46.93
		c-27.84,0-40.46,18.05-53.82,37.14c-14.55,20.79-31.05,44.37-71,45.02c-43.01,0.83-75.93-32.03-77.31-33.42l8.37-3.38
		c0.3,0.31,30.59,30.49,67.59,30.49c0.37,0,0.73-0.01,1.1-0.01c33.73-0.55,47.57-20.33,62.22-41.28
		C78.13,43.19,92.67,22.4,126.91,22.4c33.01,0,49.55,24.66,67.06,50.77c19.09,28.46,38.83,57.89,80.16,57.89
		c41.35,0,55.02-23.2,68.24-45.63c11.75-19.92,23.89-40.52,56.46-40.52c35.84,0,50.83,15.82,64.05,29.79
		c11.47,12.11,21.36,22.57,42.61,22.57v6.33c-26.8,0-39.14-13.02-51.07-25.62c-13.02-13.75-25.32-26.74-55.58-26.74
		c-25.73,0-35.68,16.88-47.2,36.42C337.89,110.98,322.32,137.4,274.14,137.4z"/>
	<path class="st1" d="M274.55,145.84c-45.87,0-69.02-31.42-89.45-59.13c-17.05-23.14-33.16-45-58.54-45
		c-26.68,0-40.03,17.31-54.16,35.64c-15.35,19.91-32.75,42.48-71.04,43.1c-0.43,0-0.88,0.01-1.31,0.01
		c-40.75,0-73.92-30.68-75.33-32.01l8.18-3.56c0.32,0.3,31.66,29.24,67.16,29.24c0.35,0,0.7-0.01,1.06-0.01
		c32.31-0.52,46.93-19.48,62.42-39.57c14.84-19.26,30.19-39.16,63.03-39.16c31.65,0,49.06,23.62,67.48,48.63
		c20.11,27.28,40.9,55.5,80.5,55.5c39.61,0,54.27-22.25,68.45-43.76c12.56-19.07,25.56-38.8,56.78-38.8
		c34.36,0,49.76,15.16,63.36,28.53c11.81,11.62,22,21.65,42.34,21.65v6.33c-25.71,0-38.38-12.47-50.65-24.54
		c-13.4-13.19-26.06-25.64-55.06-25.64c-24.65,0-35.32,16.19-47.66,34.93C337.41,120.53,320.74,145.84,274.55,145.84z"/>
	<path class="st1" d="M274.98,154.28c-43.89,0-68.2-30.04-89.64-56.54c-17.93-22.15-34.85-43.07-59.12-43.07
		c-25.53,0-39.61,16.58-54.51,34.14c-16.94,19.95-34.45,40.57-71.06,41.17c-39.63,0.79-74.5-29.28-75.97-30.56l7.96-3.76
		c0.33,0.29,33.45,28.68,67.76,27.99c30.89-0.5,46.3-18.64,62.62-37.86c15.62-18.41,31.79-37.44,63.2-37.44
		c30.28,0,48.56,22.58,67.9,46.49c21.13,26.11,42.99,53.11,80.86,53.11c37.89,0,53.53-21.3,68.67-41.89
		c14.01-19.07,27.24-37.08,57.1-37.08c32.88,0,48.7,14.48,62.65,27.26c12.15,11.13,22.65,20.74,42.09,20.74v6.33
		c-24.6,0-37.62-11.92-50.2-23.44c-13.8-12.63-26.82-24.56-54.54-24.56c-23.58,0-34.96,15.5-48.14,33.45
		C336.91,130.09,319.16,154.28,274.98,154.28z"/>
	<path class="st1" d="M275.39,162.72c-41.9,0-67.36-28.66-89.81-53.94c-18.8-21.15-36.55-41.14-59.71-41.14
		c-24.38,0-39.19,15.86-54.87,32.64c-17.77,19.01-36.13,38.68-71.06,39.24c-0.41,0-0.8,0-1.21,0c-37.31,0-72.59-27.94-74.08-29.15
		l7.73-3.94c0.34,0.27,33.83,26.76,66.34,26.76c0.33,0,0.65,0,0.97,0c29.48-0.47,46.43-18.61,62.81-36.15
		c16.41-17.57,33.38-35.73,63.37-35.73c28.91,0,48.04,21.54,68.31,44.34c22.16,24.95,45.07,50.74,81.21,50.74
		c36.18,0,52.81-20.34,68.9-40.02C359.16,98.18,373.19,81,401.7,81c31.39,0,47.62,13.81,61.94,25.99
		c12.5,10.64,23.3,19.82,41.85,19.82v6.33c-23.49,0-36.84-11.36-49.75-22.35c-14.18-12.07-27.59-23.47-54.03-23.47
		c-22.51,0-34.62,14.81-48.64,31.96C336.41,139.65,317.56,162.72,275.39,162.72z"/>
	<path class="st1" d="M275.82,171.16c-39.91,0-66.52-27.27-89.99-51.34c-19.68-20.17-38.26-39.21-60.3-39.21
		c-23.24,0-38.8,15.13-55.27,31.15c-18.58,18.08-37.79,36.77-71.04,37.31c-0.38,0-0.78,0-1.16,0c-35.58,0-71.9-26.57-73.45-27.72
		l7.48-4.14c0.35,0.26,35.44,25.99,66.88,25.52C27.04,142.28,44.81,125,62,108.28c17.18-16.72,34.95-34.01,63.53-34.01
		c27.53,0,47.52,20.5,68.69,42.2c23.19,23.77,47.18,48.36,81.59,48.36c34.46,0,52.08-19.4,69.13-38.16
		c15.71-17.3,30.56-33.63,57.69-33.63c29.91,0,46.54,13.13,61.24,24.73c12.85,10.15,23.94,18.91,41.6,18.91V143
		c-22.38,0-36.06-10.8-49.3-21.25c-13.93-11-28.35-22.38-53.54-22.38c-21.44,0-34.29,14.12-49.14,30.49
		C335.9,149.21,315.97,171.16,275.82,171.16z"/>
	<path class="st1" d="M276.23,179.6c-37.91,0-65.66-25.89-90.13-48.73c-20.56-19.18-39.98-37.3-60.91-37.3
		c-22.1,0-38.41,14.41-55.67,29.66C50.12,140.37,30.07,158.1-1.5,158.61c-0.37,0-0.74,0-1.09,0c-33.86,0-71.22-25.21-72.8-26.3
		l7.21-4.33c0.37,0.25,36.9,24.78,66.43,24.29c26.67-0.43,45.27-16.86,63.25-32.76c17.97-15.87,36.53-32.28,63.69-32.28
		c26.16,0,47,19.45,69.07,40.05c24.22,22.6,49.28,45.98,81.98,45.98c32.75,0,51.37-18.45,69.39-36.3
		c16.56-16.41,32.21-31.9,57.98-31.9c28.42,0,45.47,12.46,60.5,23.46c13.21,9.66,24.61,17.99,41.39,17.99v6.33
		c-21.26,0-35.28-10.25-48.83-20.16c-14.33-10.47-29.13-21.3-53.06-21.3c-20.38,0-34.6,14.09-49.67,29.01
		C335.39,158.77,314.36,179.6,276.23,179.6z"/>
	<path class="st1" d="M276.65,188.04c-35.91,0-63.54-23.45-90.27-46.12c-21.44-18.19-41.69-35.37-61.54-35.37
		c-20.96,0-38.01,13.68-56.08,28.17c-20.2,16.21-41.09,32.97-70.97,33.45c-32.77,0.51-71.54-23.82-73.19-24.86l6.92-4.53
		c0.38,0.24,37.13,23.06,65.18,23.06c0.28,0,0.55,0,0.83,0c25.27-0.41,44.7-15.99,63.5-31.06c18.72-15.02,38.09-30.56,63.82-30.56
		c24.77,0,46.47,18.41,69.45,37.9c25.26,21.43,51.39,43.6,82.36,43.6c31.04,0,50.67-17.51,69.66-34.44
		c17.4-15.52,33.84-30.17,58.24-30.17c26.92,0,44.37,11.79,59.77,22.19c12.99,8.79,25.28,17.08,41.17,17.08v6.33
		c-20.15,0-34.48-9.69-48.35-19.06c-14.7-9.94-29.91-20.21-52.59-20.21c-19.32,0-34.31,13.38-50.2,27.53
		C334.86,168.34,312.76,188.04,276.65,188.04z"/>
	<path class="st1" d="M277.07,196.47c-33.92,0-62.63-22.12-90.4-43.51c-22.34-17.2-43.44-33.45-62.18-33.45
		c-19.82,0-37.63,12.96-56.52,26.68c-20.99,15.27-42.72,31.06-70.9,31.51c-30.37,0.41-70.78-22.46-72.47-23.43l6.61-4.71
		c0.38,0.22,38.26,21.82,64.83,21.82c0.27,0,0.52,0,0.78,0c23.87-0.39,44.14-15.12,63.73-29.37c20.39-14.82,39.65-28.82,63.94-28.82
		c23.39,0,45.93,17.36,69.79,35.74c26.31,20.27,53.52,41.22,82.79,41.22c29.31,0,49.96-16.56,69.94-32.58
		c18.23-14.62,35.46-28.44,58.49-28.44c25.42,0,43.27,11.11,59.01,20.92c13.35,8.32,25.96,16.17,40.97,16.17v6.33
		c-19.03,0-33.69-9.13-47.87-17.96c-15.08-9.41-30.7-19.13-52.1-19.13c-18.26,0-34.04,12.66-50.76,26.06
		C334.32,177.9,311.16,196.47,277.07,196.47z"/>
	<path class="st1" d="M277.49,204.92c-31.9,0-61.7-20.79-90.51-40.9c-23.24-16.22-45.18-31.54-62.84-31.54
		c-18.68,0-37.28,12.23-56.97,25.19c-21.79,14.33-44.32,29.15-70.82,29.58c-0.31,0-0.62,0-0.93,0c-28.68,0-69.09-21.11-70.82-22.02
		l6.29-4.88c0.41,0.2,40.3,21.03,65.21,20.57c22.47-0.36,43.57-14.24,63.97-27.66c21.19-13.94,41.2-27.11,64.06-27.11
		c22,0,45.39,16.32,70.13,33.59c26.09,18.21,55.66,38.85,83.22,38.85c27.62,0,49.29-15.62,70.25-30.72
		c19.06-13.74,37.07-26.72,58.72-26.72c23.93,0,42.16,10.44,58.25,19.65c13.71,7.85,26.65,15.25,40.77,15.25v6.33
		c-17.9,0-32.21-8.2-47.37-16.87c-15.49-8.87-31.5-18.04-51.65-18.04c-17.21,0-33.78,11.94-51.32,24.58
		C333.77,187.46,309.55,204.92,277.49,204.92z"/>
	<path class="st1" d="M277.91,213.36c-29.91,0-60.77-19.47-90.61-38.3c-23.08-14.56-46.95-29.62-63.51-29.62
		c-17.54,0-36.93,11.51-57.45,23.69c-22.57,13.4-45.9,27.25-70.71,27.66c-0.29,0-0.58,0-0.87,0c-26.96,0-68.37-19.75-70.14-20.6
		l5.94-5.06c0.42,0.19,40.53,19.33,64.13,19.33c0.23,0,0.46,0,0.69,0c21.07-0.34,43.01-13.36,64.23-25.96
		c21.98-13.05,42.76-25.39,64.18-25.39c20.62,0,44.83,15.28,70.46,31.44c27.09,17.1,57.81,36.48,83.66,36.48
		c25.92,0,48.61-14.67,70.57-28.86c19.88-12.85,38.64-24.98,58.92-24.98c22.44,0,41.06,9.77,57.48,18.38
		c14.07,7.38,27.35,14.34,40.59,14.34v6.33c-16.78,0-31.39-7.66-46.86-15.78c-15.89-8.33-32.32-16.95-51.21-16.95
		c-16.14,0-33.51,11.22-51.89,23.1C333.22,197.02,307.95,213.36,277.91,213.36z"/>
	<path class="st1" d="M278.33,221.79c-27.89,0-59.81-18.14-90.68-35.69c-23.95-13.61-48.73-27.69-64.2-27.69
		c-16.41,0-37.53,11.28-57.96,22.2c-23.34,12.46-47.46,25.35-70.58,25.73c-0.27,0-0.54,0-0.82,0c-25.23,0-67.62-18.4-69.44-19.19
		l5.59-5.23c11.74,5.13,45.85,18.28,64.42,18.08c19.66-0.32,42.45-12.49,64.49-24.26c22.78-12.17,44.3-23.67,64.29-23.67
		c19.23,0,43.12,13.57,70.77,29.29c28.12,15.98,59.99,34.09,84.12,34.09c24.21,0,47.95-13.72,70.9-27
		c20.69-11.96,40.22-23.26,59.14-23.26c20.93,0,39.11,8.7,56.7,17.12c14.42,6.91,28.05,13.43,40.42,13.43v6.33
		c-15.66,0-30.56-7.13-46.35-14.69c-16.29-7.8-33.14-15.86-50.78-15.86c-15.1,0-33.27,10.5-52.5,21.62
		C332.66,206.58,306.35,221.79,278.33,221.79z"/>
	<path class="st1" d="M278.74,230.24c-25.89,0-58.87-16.82-90.75-33.09c-24.83-12.67-50.52-25.77-64.89-25.77
		c-15.27,0-37.23,10.51-58.47,20.69c-24.1,11.53-49.01,23.46-70.43,23.81c-0.25,0-0.5,0-0.75,0c-23.51,0-66.89-17.05-68.75-17.78
		l5.2-5.39c11.95,4.72,46.37,16.84,63.5,16.84c0.18,0,0.38,0,0.56,0c18.27-0.3,41.9-11.61,64.75-22.55
		c23.58-11.29,45.85-21.95,64.4-21.95c17.84,0,42.51,12.58,71.07,27.15c29.13,14.87,62.15,31.71,84.58,31.71
		c22.5,0,48.41-13.35,71.26-25.13c21.49-11.08,41.79-21.54,59.32-21.54c19.43,0,37.98,8.06,55.91,15.86
		c14.79,6.43,28.76,12.5,40.25,12.5v6.33c-14.53,0-29.72-6.61-45.81-13.6c-16.69-7.26-33.96-14.77-50.35-14.77
		c-14.04,0-33.02,9.78-53.11,20.14C330.9,216.75,304.74,230.24,278.74,230.24z"/>
	<path class="st1" d="M279.17,238.67c-23.89,0-57.91-15.5-90.82-30.49c-25.71-11.72-52.31-23.84-65.59-23.84
		c-14.14,0-36.96,9.76-59.04,19.18c-24.83,10.61-50.5,21.58-70.23,21.9c-0.23,0-0.47,0-0.7,0c-21.79,0-66.15-15.7-68.04-16.37
		l4.81-5.53c12.41,4.41,47.65,15.92,63.69,15.56c16.87-0.27,41.34-10.72,64.99-20.83c24.38-10.41,47.41-20.24,64.54-20.24
		c16.45,0,41.89,11.59,71.34,25.01c30.16,13.75,64.35,29.32,85.07,29.32c20.79,0,47.79-12.35,71.61-23.25
		c23.25-10.64,43.33-19.82,59.48-19.82c17.93,0,36.84,7.42,55.12,14.6c15.16,5.96,29.48,11.58,40.1,11.58v6.33
		c-13.41,0-28.89-6.08-45.28-12.52c-17.11-6.72-34.8-13.67-49.94-13.67c-12.99,0-32.77,9.06-53.74,18.64
		C330.29,226.26,303.14,238.67,279.17,238.67z"/>
	<path class="st1" d="M279.59,247.11c-21.87,0-56.94-14.19-90.85-27.91c-26.61-10.76-54.13-21.89-66.32-21.89
		c-12.99,0-36.7,8.98-59.62,17.67c-25.56,9.68-51.99,19.7-70.03,19.99c-0.21,0-0.42,0-0.65,0c-20.06,0-65.39-14.36-67.33-14.98
		l4.4-5.66c12.61,4.01,48.2,14.31,62.85,14.31c0.15,0,0.32,0,0.47,0c15.46-0.25,40.77-9.84,65.23-19.11
		c25.18-9.54,48.96-18.55,64.66-18.55c15.07,0,41.27,10.6,71.61,22.88c31.2,12.62,66.56,26.93,85.56,26.93
		c19.08,0,47.18-11.35,71.98-21.36c24.08-9.72,44.87-18.12,59.66-18.12c16.43,0,35.68,6.79,54.3,13.35
		c14.85,5.24,30.22,10.65,39.96,10.65v6.33c-12.28,0-28.04-5.56-44.73-11.44c-17.53-6.18-35.66-12.56-49.53-12.56
		c-11.93,0-33.51,8.71-54.37,17.14C329.66,235.76,301.54,247.11,279.59,247.11z"/>
	<path class="st1" d="M280.01,255.55c-19.88,0-55.98-12.88-90.9-25.33c-27.51-9.8-55.95-19.95-67.05-19.95
		c-11.86,0-36.45,8.21-60.23,16.14c-27.48,9.17-53.43,17.83-69.78,18.09c-0.2,0-0.41,0-0.62,0c-18.01,0-61.63-12.19-66.6-13.59
		l4-5.79c13.09,3.7,50.13,13.49,62.96,13.04c14.06-0.23,40.19-8.95,65.45-17.38c25.98-8.67,50.53-16.86,64.81-16.86
		c13.68,0,40.64,9.62,71.86,20.75c32.25,11.5,68.78,24.53,86.09,24.53c17.38,0,46.59-10.34,72.36-19.47
		c24.89-8.82,46.39-16.42,59.81-16.42c14.92,0,34.52,6.15,53.48,12.1c15.22,4.78,30.96,9.72,39.82,9.72v6.33
		c-11.16,0-27.2-5.03-44.18-10.36c-17.11-5.37-36.5-11.45-49.12-11.45c-10.87,0-33.32,7.95-55.02,15.63
		C329.03,245.26,299.94,255.55,280.01,255.55z"/>
	<path class="st1" d="M280.43,263.99c-17.87,0-55-11.57-90.92-22.75c-28.41-8.84-57.78-17.99-67.8-17.99
		c-10.71,0-36.22,7.42-60.87,14.61c-28.2,8.21-54.85,15.97-69.51,16.2c-0.18,0-0.37,0-0.55,0c-16.31,0-60.81-10.94-65.88-12.2
		l3.57-5.9c13.42,3.34,50.4,11.86,62.61,11.76c12.66-0.2,40.81-8.4,65.66-15.63c26.81-7.81,52.13-15.17,64.98-15.17
		c12.29,0,40.02,8.64,72.12,18.64c33.28,10.36,71,22.11,86.59,22.11c15.66,0,45.99-9.34,72.75-17.57
		c25.69-7.9,47.89-14.73,59.95-14.73c13.42,0,33.37,5.52,52.67,10.86c15.58,4.31,31.7,8.77,39.69,8.77v6.33
		c-10.03,0-25.6-4.31-43.62-9.29c-17.51-4.85-37.37-10.34-48.74-10.34c-9.8,0-33.11,7.18-55.65,14.11
		C328.39,254.75,298.34,263.99,280.43,263.99z"/>
	<path class="st1" d="M280.85,272.43c-15.86,0-54.02-10.26-90.93-20.18c-29.31-7.88-59.64-16.03-68.56-16.03
		c-9.57,0-37.21,6.94-61.61,13.07C30.88,256.53,3.6,263.39-9.39,263.6c-0.16,0-0.33,0-0.49,0c-14.64,0-59.99-9.69-65.17-10.81
		l3.17-6c13.78,2.97,52.18,10.44,62.25,10.48c11.25-0.18,40.21-7.46,65.78-13.88c27.67-6.95,53.79-13.51,65.22-13.51
		c10.92,0,39.41,7.66,72.38,16.53c34.33,9.23,73.23,19.69,87.1,19.69c13.93,0,45.39-8.32,73.14-15.65
		c26.5-7.01,49.4-13.06,60.09-13.06c11.92,0,32.21,4.89,51.84,9.62c15.95,3.84,32.45,7.82,39.56,7.82v6.33
		c-8.91,0-24.73-3.81-43.05-8.24c-17.93-4.32-38.23-9.22-48.35-9.22c-8.74,0-32.92,6.4-56.31,12.58
		C327.76,264.23,296.75,272.43,280.85,272.43z"/>
	<path class="st1" d="M281.27,280.87c-13.87,0-53.05-8.96-90.94-17.63c-28.83-6.59-61.49-14.06-69.31-14.06
		c-8.41,0-37.07,6.12-62.37,11.52C29.11,267,1.2,272.96-10.1,273.14c-0.14,0-0.28,0-0.43,0c-12.94,0-59.16-8.46-64.45-9.44
		l2.74-6.08c20.16,3.72,52.94,9.2,61.6,9.2c0.1,0,0.19,0,0.29,0c9.83-0.16,39.6-6.51,65.87-12.12c29.77-6.36,55.5-11.84,65.5-11.84
		c8.9,0,33.38,5.45,72.65,14.43c35.37,8.09,75.46,17.26,87.6,17.26c12.21,0,44.79-7.3,73.53-13.73c27.31-6.11,50.9-11.4,60.25-11.4
		c10.42,0,31.05,4.26,51,8.4c16.33,3.38,33.22,6.88,39.44,6.88v6.33c-7.79,0-23.87-3.32-42.48-7.18
		c-18.33-3.79-39.1-8.09-47.96-8.09c-7.66,0-32.74,5.61-56.98,11.05C327.14,273.71,295.16,280.87,281.27,280.87z"/>
	<path class="st1" d="M281.68,289.31c-11.04,0-43.18-5.97-90.96-15.08c-29.68-5.67-63.34-12.08-70.06-12.08
		c-7.25,0-37,5.29-63.24,9.96c-30.14,5.36-58.61,10.42-68.24,10.58c-0.13,0-0.25,0-0.37,0c-11.28,0-58.35-7.24-63.74-8.07l2.34-6.16
		c20.88,3.24,54.04,8.05,61.53,7.9c8.42-0.14,38.92-5.56,65.85-10.35c35.64-6.34,57.87-10.2,65.89-10.2
		c7.77,0,32.76,4.69,72.88,12.35c36.42,6.95,77.7,14.82,88.13,14.82c10.49,0,44.19-6.27,73.92-11.8c32.6-6.06,52.93-9.74,60.38-9.74
		c8.92,0,28.96,3.49,50.17,7.18c15.92,2.77,33.98,5.91,39.33,5.91v6.33c-6.67,0-23.01-2.85-41.93-6.13
		c-18.73-3.26-39.97-6.95-47.57-6.95c-6.58,0-32.54,4.83-57.63,9.49C326.51,283.19,293.58,289.31,281.68,289.31z"/>
	<path class="st1" d="M282.11,297.75c-9.2,0-42-4.97-90.97-12.55c-30.56-4.73-65.2-10.09-70.81-10.09c-6.1,0-37.01,4.46-64.29,8.39
		c-30.66,4.43-59.62,8.6-67.58,8.73c-8.34-0.01-57.78-6.01-63.34-6.71l1.91-6.21c20.35,2.57,54.6,6.59,60.97,6.59
		c0.07,0,0.14,0,0.2,0c6.99-0.11,38.16-4.61,65.66-8.57c36.87-5.32,59.75-8.54,66.46-8.54c6.47,0,32,3.9,73.14,10.27
		c35.62,5.51,79.94,12.37,88.64,12.37c8.74,0,43.57-5.23,74.3-9.85c33.41-5.02,54.22-8.1,60.54-8.1c7.43,0,27.78,2.89,49.33,5.96
		c16.29,2.32,34.75,4.95,39.21,4.95v6.33c-5.18,0-19.08-1.92-41.36-5.09c-19.14-2.73-40.85-5.81-47.19-5.81
		c-5.5,0-33.54,4.22-58.28,7.93C325.89,292.66,292,297.75,282.11,297.75z"/>
	<path class="st1" d="M282.52,306.19c-7.35,0-40.79-3.97-90.97-10.02c-31.44-3.79-67.07-8.09-71.57-8.09
		c-4.93,0-37.18,3.62-65.64,6.82c-36.41,4.09-60.74,6.78-66.59,6.88c-0.09,0-0.18,0-0.26,0c-7.92,0-56.71-4.8-62.31-5.36l1.51-6.26
		c21.08,2.09,56.45,5.18,60.81,5.28c5.56-0.08,37.21-3.64,65.13-6.78c38.3-4.3,61.95-6.91,67.35-6.91c5.16,0,31.26,3.12,73.4,8.2
		c36.61,4.42,82.18,9.92,89.15,9.92c7.02,0,44.52-4.38,74.66-7.89c34.35-4.01,55.66-6.47,60.71-6.47c5.52,0,22.78,1.88,48.5,4.76
		c16.65,1.86,35.51,3.97,39.09,3.97v6.33c-4.22,0-18.25-1.55-40.79-4.07c-18.59-2.07-41.72-4.66-46.8-4.66
		c-4.42,0-33.37,3.38-58.93,6.36C317.57,303.03,289.87,306.19,282.52,306.19z"/>
	<path class="st1" d="M282.95,314.63c-5.5,0-39.61-2.97-91.04-7.5c-32.23-2.85-68.77-6.06-72.27-6.08c-3.77,0-39.17,2.9-67.62,5.24
		c-37.56,3.08-60.67,4.96-64.99,5.03c-0.07,0-0.14,0-0.2,0c-6.09,0-52.31-3.34-61.61-4.01l1.12-6.29
		c21.29,1.55,56.2,3.98,60.31,3.98c0.05,0,0.09,0,0.13,0c4.12-0.06,35.92-2.68,63.97-4.97c40.12-3.29,64.78-5.29,68.89-5.29
		c3.87,0,30.49,2.33,73.62,6.13c37.63,3.32,84.45,7.45,89.69,7.45c5.27,0,43.95-3.29,75.04-5.94c35.27-3,57.08-4.84,60.86-4.84
		c4.14,0,21.57,1.41,47.69,3.56c17,1.4,36.27,2.98,38.95,2.98v6.33c-3.16,0-17.33-1.16-40.21-3.04
		c-18.99-1.56-42.61-3.51-46.43-3.51c-3.32,0-33.19,2.54-59.55,4.78C316.76,312.26,288.46,314.63,282.95,314.63z"/>
	<path class="st1" d="M283.36,323.07c-3.66,0-38.45-1.98-91.09-5c-34.56-1.98-70.28-4.03-73-4.06c-2.8,0.01-41.12,2.05-71.9,3.7
		c-36.16,1.93-58.32,3.1-61.06,3.15c-0.04,0-0.09,0-0.14,0c-4.5,0-51.44-2.23-60.91-2.67l0.74-6.32
		c21.67,1.03,56.97,2.66,60.04,2.66c0.02,0,0.03,0,0.05,0c2.64-0.04,32.04-1.61,60.47-3.13c42.11-2.25,69.92-3.72,72.74-3.72
		c2.57,0,29.74,1.55,73.87,4.08c38.63,2.22,86.7,4.97,90.2,4.97c3.52,0,43.4-2.19,75.43-3.96c36.19-1.99,58.49-3.21,61-3.21
		c2.75,0,20.35,0.94,46.86,2.37c17.28,0.93,36.86,1.99,38.82,2v6.33c-2.1,0-16.44-0.77-39.65-2.02
		c-19.37-1.05-43.49-2.34-46.03-2.34c-2.47,0.01-33.11,1.7-60.15,3.19C315.96,321.49,287.04,323.07,283.36,323.07z"/>
	<path class="st1" d="M283.78,331.51c-1.83,0-37.25-0.99-91.09-2.5c-35.4-0.99-72.03-2.02-73.77-2.03
		c-2.05,0.01-51.48,1.3-87.57,2.24c-24.37,0.64-44.57,1.16-45.75,1.18c-2.16,0.09-46.61-1.02-60.31-1.33l0.37-6.33
		c22.98,0.54,57.85,1.33,59.76,1.33h0.01c1.09-0.02,21.23-0.55,45.52-1.17c48.89-1.27,86.42-2.25,88.01-2.25
		c1.22,0,24.67,0.66,74.18,2.04c41.46,1.16,88.46,2.48,90.67,2.49c2.04-0.01,42.92-1.11,75.78-1.99
		c37.12-0.99,59.94-1.61,61.19-1.61c1.38,0,18.32,0.44,46.05,1.18c19.16,0.51,37.35,0.99,38.69,1l-0.02,6.33
		c-1,0-13.27-0.32-39.08-1.01c-19.66-0.52-44.13-1.17-45.66-1.17c-1.57,0.01-31.66,0.82-60.77,1.6
		C315.14,330.72,285.62,331.51,283.78,331.51z"/>
	<rect x="-74.68" y="333.62" class="st1" width="580.16" height="6.33"/>
</g>
</svg>
